<mxfile host="app.diagrams.net" modified="2023-08-31T21:56:30.034Z" agent="Mozilla/5.0 (Windows NT 10.0; Win64; x64) AppleWebKit/537.36 (KHTML, like Gecko) Chrome/114.0.0.0 YaBrowser/23.7.3.824 Yowser/2.5 Safari/537.36" etag="NWBF95lxAomMUI5puHwO" version="21.7.1" type="device">
  <diagram name="Страница — 1" id="4QyIB4pzYGaFtxFctbQb">
    <mxGraphModel dx="746" dy="457" grid="1" gridSize="10" guides="1" tooltips="1" connect="1" arrows="1" fold="1" page="1" pageScale="1" pageWidth="827" pageHeight="1169" math="0" shadow="0">
      <root>
        <mxCell id="0" />
        <mxCell id="1" parent="0" />
        <mxCell id="QVGytKcKwZL8honaYoRZ-9" style="edgeStyle=orthogonalEdgeStyle;rounded=0;orthogonalLoop=1;jettySize=auto;html=1;exitX=0.5;exitY=1;exitDx=0;exitDy=0;entryX=0.426;entryY=0.167;entryDx=0;entryDy=0;entryPerimeter=0;" edge="1" parent="1" source="QVGytKcKwZL8honaYoRZ-1" target="QVGytKcKwZL8honaYoRZ-3">
          <mxGeometry relative="1" as="geometry">
            <mxPoint x="360" y="109.99999999999989" as="targetPoint" />
          </mxGeometry>
        </mxCell>
        <mxCell id="QVGytKcKwZL8honaYoRZ-1" value="start" style="rounded=1;whiteSpace=wrap;html=1;" vertex="1" parent="1">
          <mxGeometry x="180" y="20" width="120" height="40" as="geometry" />
        </mxCell>
        <mxCell id="QVGytKcKwZL8honaYoRZ-10" style="edgeStyle=orthogonalEdgeStyle;rounded=0;orthogonalLoop=1;jettySize=auto;html=1;exitX=0.5;exitY=1;exitDx=0;exitDy=0;entryX=0.5;entryY=0;entryDx=0;entryDy=0;" edge="1" parent="1" source="QVGytKcKwZL8honaYoRZ-3" target="QVGytKcKwZL8honaYoRZ-4">
          <mxGeometry relative="1" as="geometry" />
        </mxCell>
        <mxCell id="QVGytKcKwZL8honaYoRZ-3" value="Numbers=[1,8,3,8,2,6,8,8]&lt;br&gt;&lt;br&gt;index = 0&lt;br&gt;&lt;br&gt;maximum = numbers[index]&lt;br&gt;&lt;br&gt;count_maximal = 0" style="rounded=1;whiteSpace=wrap;html=1;" vertex="1" parent="1">
          <mxGeometry x="151" y="130" width="209" height="120" as="geometry" />
        </mxCell>
        <mxCell id="QVGytKcKwZL8honaYoRZ-11" style="edgeStyle=orthogonalEdgeStyle;rounded=0;orthogonalLoop=1;jettySize=auto;html=1;entryX=0.5;entryY=0;entryDx=0;entryDy=0;" edge="1" parent="1" source="QVGytKcKwZL8honaYoRZ-4" target="QVGytKcKwZL8honaYoRZ-5">
          <mxGeometry relative="1" as="geometry" />
        </mxCell>
        <mxCell id="QVGytKcKwZL8honaYoRZ-56" style="edgeStyle=orthogonalEdgeStyle;rounded=0;orthogonalLoop=1;jettySize=auto;html=1;exitX=1;exitY=0.5;exitDx=0;exitDy=0;entryX=0;entryY=0.5;entryDx=0;entryDy=0;" edge="1" parent="1" source="QVGytKcKwZL8honaYoRZ-4" target="QVGytKcKwZL8honaYoRZ-28">
          <mxGeometry relative="1" as="geometry" />
        </mxCell>
        <mxCell id="QVGytKcKwZL8honaYoRZ-4" value="index &amp;lt;&amp;nbsp; numbers.length" style="rhombus;whiteSpace=wrap;html=1;" vertex="1" parent="1">
          <mxGeometry x="156.63" y="300" width="197.75" height="90" as="geometry" />
        </mxCell>
        <mxCell id="QVGytKcKwZL8honaYoRZ-15" style="edgeStyle=orthogonalEdgeStyle;rounded=0;orthogonalLoop=1;jettySize=auto;html=1;exitX=0.5;exitY=1;exitDx=0;exitDy=0;entryX=0.5;entryY=0;entryDx=0;entryDy=0;" edge="1" parent="1" source="QVGytKcKwZL8honaYoRZ-5" target="QVGytKcKwZL8honaYoRZ-6">
          <mxGeometry relative="1" as="geometry" />
        </mxCell>
        <mxCell id="QVGytKcKwZL8honaYoRZ-36" style="edgeStyle=orthogonalEdgeStyle;rounded=0;orthogonalLoop=1;jettySize=auto;html=1;exitX=1;exitY=0.5;exitDx=0;exitDy=0;entryX=0;entryY=0.5;entryDx=0;entryDy=0;" edge="1" parent="1" source="QVGytKcKwZL8honaYoRZ-5" target="QVGytKcKwZL8honaYoRZ-34">
          <mxGeometry relative="1" as="geometry" />
        </mxCell>
        <mxCell id="QVGytKcKwZL8honaYoRZ-5" value="numbers[index] &amp;gt; maximum" style="rhombus;whiteSpace=wrap;html=1;" vertex="1" parent="1">
          <mxGeometry x="163.51999999999998" y="458" width="183.97" height="130" as="geometry" />
        </mxCell>
        <mxCell id="QVGytKcKwZL8honaYoRZ-16" style="edgeStyle=orthogonalEdgeStyle;rounded=0;orthogonalLoop=1;jettySize=auto;html=1;exitX=0.5;exitY=1;exitDx=0;exitDy=0;entryX=0.5;entryY=0;entryDx=0;entryDy=0;" edge="1" parent="1" source="QVGytKcKwZL8honaYoRZ-6" target="QVGytKcKwZL8honaYoRZ-8">
          <mxGeometry relative="1" as="geometry" />
        </mxCell>
        <mxCell id="QVGytKcKwZL8honaYoRZ-6" value="maximum = numbers[index]&lt;br&gt;count_maximal = 1" style="rounded=1;whiteSpace=wrap;html=1;" vertex="1" parent="1">
          <mxGeometry x="169.95" y="670" width="171.12" height="80" as="geometry" />
        </mxCell>
        <mxCell id="QVGytKcKwZL8honaYoRZ-50" style="edgeStyle=orthogonalEdgeStyle;rounded=0;orthogonalLoop=1;jettySize=auto;html=1;" edge="1" parent="1" source="QVGytKcKwZL8honaYoRZ-8">
          <mxGeometry relative="1" as="geometry">
            <mxPoint x="90" y="350" as="targetPoint" />
            <Array as="points">
              <mxPoint x="90" y="890" />
            </Array>
          </mxGeometry>
        </mxCell>
        <mxCell id="QVGytKcKwZL8honaYoRZ-53" value="Text" style="edgeLabel;html=1;align=center;verticalAlign=middle;resizable=0;points=[];" vertex="1" connectable="0" parent="QVGytKcKwZL8honaYoRZ-50">
          <mxGeometry x="0.8672" y="1" relative="1" as="geometry">
            <mxPoint as="offset" />
          </mxGeometry>
        </mxCell>
        <mxCell id="QVGytKcKwZL8honaYoRZ-8" value="index = index+1" style="rounded=1;whiteSpace=wrap;html=1;" vertex="1" parent="1">
          <mxGeometry x="198.25" y="860" width="114.5" height="60" as="geometry" />
        </mxCell>
        <mxCell id="QVGytKcKwZL8honaYoRZ-20" value="TRUE" style="text;html=1;align=center;verticalAlign=middle;resizable=0;points=[];autosize=1;strokeColor=none;fillColor=none;" vertex="1" parent="1">
          <mxGeometry x="270" y="385" width="60" height="30" as="geometry" />
        </mxCell>
        <mxCell id="QVGytKcKwZL8honaYoRZ-21" value="TRUE" style="text;html=1;align=center;verticalAlign=middle;resizable=0;points=[];autosize=1;strokeColor=none;fillColor=none;" vertex="1" parent="1">
          <mxGeometry x="260" y="588" width="60" height="30" as="geometry" />
        </mxCell>
        <mxCell id="QVGytKcKwZL8honaYoRZ-23" value="TRUE" style="text;html=1;align=center;verticalAlign=middle;resizable=0;points=[];autosize=1;strokeColor=none;fillColor=none;" vertex="1" parent="1">
          <mxGeometry x="252.75" y="768" width="60" height="30" as="geometry" />
        </mxCell>
        <mxCell id="QVGytKcKwZL8honaYoRZ-26" value="End" style="rounded=1;whiteSpace=wrap;html=1;" vertex="1" parent="1">
          <mxGeometry x="730" y="305" width="80" height="60" as="geometry" />
        </mxCell>
        <mxCell id="QVGytKcKwZL8honaYoRZ-30" value="" style="edgeStyle=orthogonalEdgeStyle;rounded=0;orthogonalLoop=1;jettySize=auto;html=1;" edge="1" parent="1" source="QVGytKcKwZL8honaYoRZ-28" target="QVGytKcKwZL8honaYoRZ-26">
          <mxGeometry relative="1" as="geometry">
            <Array as="points">
              <mxPoint x="710" y="335" />
              <mxPoint x="710" y="335" />
            </Array>
          </mxGeometry>
        </mxCell>
        <mxCell id="QVGytKcKwZL8honaYoRZ-28" value="count_maximal" style="shape=document;whiteSpace=wrap;html=1;boundedLbl=1;" vertex="1" parent="1">
          <mxGeometry x="550" y="305" width="110" height="80" as="geometry" />
        </mxCell>
        <mxCell id="QVGytKcKwZL8honaYoRZ-37" style="edgeStyle=orthogonalEdgeStyle;rounded=0;orthogonalLoop=1;jettySize=auto;html=1;exitX=1;exitY=0.5;exitDx=0;exitDy=0;" edge="1" parent="1" source="QVGytKcKwZL8honaYoRZ-34" target="QVGytKcKwZL8honaYoRZ-35">
          <mxGeometry relative="1" as="geometry" />
        </mxCell>
        <mxCell id="QVGytKcKwZL8honaYoRZ-44" style="edgeStyle=orthogonalEdgeStyle;rounded=0;orthogonalLoop=1;jettySize=auto;html=1;exitX=0.5;exitY=1;exitDx=0;exitDy=0;" edge="1" parent="1" source="QVGytKcKwZL8honaYoRZ-34">
          <mxGeometry relative="1" as="geometry">
            <mxPoint x="495" y="840" as="targetPoint" />
          </mxGeometry>
        </mxCell>
        <mxCell id="QVGytKcKwZL8honaYoRZ-34" value="numbers[index] = = maximum" style="rhombus;whiteSpace=wrap;html=1;" vertex="1" parent="1">
          <mxGeometry x="400" y="459.5" width="190" height="127" as="geometry" />
        </mxCell>
        <mxCell id="QVGytKcKwZL8honaYoRZ-47" style="edgeStyle=elbowEdgeStyle;rounded=0;orthogonalLoop=1;jettySize=auto;html=1;exitX=0.5;exitY=1;exitDx=0;exitDy=0;" edge="1" parent="1" source="QVGytKcKwZL8honaYoRZ-35">
          <mxGeometry relative="1" as="geometry">
            <mxPoint x="250" y="840" as="targetPoint" />
            <mxPoint x="945" y="550.0000000000002" as="sourcePoint" />
            <Array as="points">
              <mxPoint x="730" y="700" />
            </Array>
          </mxGeometry>
        </mxCell>
        <mxCell id="QVGytKcKwZL8honaYoRZ-35" value="count_maximal = count_maximal+1" style="rounded=1;whiteSpace=wrap;html=1;" vertex="1" parent="1">
          <mxGeometry x="660" y="494.5" width="170" height="57" as="geometry" />
        </mxCell>
        <mxCell id="QVGytKcKwZL8honaYoRZ-39" value="FALSE" style="text;html=1;align=center;verticalAlign=middle;resizable=0;points=[];autosize=1;strokeColor=none;fillColor=none;" vertex="1" parent="1">
          <mxGeometry x="400" y="300" width="60" height="30" as="geometry" />
        </mxCell>
        <mxCell id="QVGytKcKwZL8honaYoRZ-40" value="FALSE" style="text;html=1;align=center;verticalAlign=middle;resizable=0;points=[];autosize=1;strokeColor=none;fillColor=none;" vertex="1" parent="1">
          <mxGeometry x="340" y="480" width="60" height="30" as="geometry" />
        </mxCell>
        <mxCell id="QVGytKcKwZL8honaYoRZ-41" value="TRUE" style="text;html=1;align=center;verticalAlign=middle;resizable=0;points=[];autosize=1;strokeColor=none;fillColor=none;" vertex="1" parent="1">
          <mxGeometry x="580" y="498" width="60" height="30" as="geometry" />
        </mxCell>
        <mxCell id="QVGytKcKwZL8honaYoRZ-48" value="FALSE" style="text;html=1;align=center;verticalAlign=middle;resizable=0;points=[];autosize=1;strokeColor=none;fillColor=none;" vertex="1" parent="1">
          <mxGeometry x="490" y="688" width="60" height="30" as="geometry" />
        </mxCell>
        <mxCell id="QVGytKcKwZL8honaYoRZ-52" value="" style="edgeStyle=none;orthogonalLoop=1;jettySize=auto;html=1;rounded=0;" edge="1" parent="1">
          <mxGeometry width="100" relative="1" as="geometry">
            <mxPoint x="90" y="344" as="sourcePoint" />
            <mxPoint x="151" y="344.17" as="targetPoint" />
            <Array as="points" />
          </mxGeometry>
        </mxCell>
      </root>
    </mxGraphModel>
  </diagram>
</mxfile>
